<svg width="75" height="75" viewBox="0 0 75 75" fill="none" xmlns="http://www.w3.org/2000/svg">
<circle cx="37.5" cy="37.5" r="37.5" fill="#F0F6F5"/>
<path d="M38.3077 21.264C38.0524 21.1546 37.7777 21.0981 37.5 21.0981C37.2223 21.0981 36.9475 21.1546 36.6923 21.264L22.3423 27.414C21.9725 27.5715 21.6571 27.8343 21.4355 28.1696C21.2139 28.5049 21.0957 28.898 21.0957 29.3C21.0957 29.7019 21.2139 30.095 21.4355 30.4303C21.6571 30.7657 21.9725 31.0284 22.3423 31.186L27.7625 33.5045C27.9637 33.277 28.213 33.0971 28.4923 32.9777L36.6923 29.464C36.9404 29.3534 37.2081 29.2932 37.4796 29.287C37.7512 29.2807 38.0214 29.3285 38.2743 29.4276C38.5273 29.5266 38.758 29.675 38.9532 29.864C39.1483 30.053 39.3039 30.2789 39.411 30.5286C39.518 30.7783 39.5744 31.0468 39.5767 31.3184C39.5791 31.5901 39.5275 31.8595 39.4248 32.1111C39.3222 32.3626 39.1705 32.5912 38.9788 32.7836C38.787 32.976 38.5589 33.1284 38.3077 33.2319L32.7173 35.6304L36.6943 37.3339C36.9493 37.443 37.2237 37.4993 37.501 37.4993C37.7783 37.4993 38.0527 37.443 38.3077 37.3339L52.6577 31.1839C53.0262 31.0258 53.3404 30.763 53.5611 30.4282C53.7818 30.0933 53.8994 29.701 53.8994 29.3C53.8994 28.8989 53.7818 28.5066 53.5611 28.1718C53.3404 27.8369 53.0262 27.5741 52.6577 27.416L38.3077 21.264ZM23.7855 36.2638L27.25 37.746V46.1551C26.5401 45.9938 25.8214 45.8747 25.0975 45.7984C24.6304 45.7493 24.1943 45.5413 23.8622 45.2092C23.5301 44.8771 23.3221 44.441 23.273 43.9739C23.0028 41.3928 23.1761 38.7844 23.7855 36.2618M36.065 50.9746C34.6798 49.6142 33.0885 48.481 31.35 47.6167V39.5049L35.0769 41.1039C35.8425 41.4321 36.6669 41.6013 37.5 41.6013C38.333 41.6013 39.1574 41.4321 39.9231 41.1039L51.2145 36.2638C51.8279 38.7859 52.0013 41.3949 51.727 43.9759C51.6779 44.443 51.4699 44.8791 51.1378 45.2112C50.8057 45.5433 50.3696 45.7513 49.9025 45.8004C45.7667 46.2354 41.9006 48.0594 38.935 50.9746C38.5518 51.3502 38.0366 51.5606 37.5 51.5606C36.9634 51.5606 36.4482 51.3502 36.065 50.9746ZM29.3 53.9C29.8437 53.9 30.3651 53.684 30.7495 53.2995C31.134 52.9151 31.35 52.3937 31.35 51.85V47.6167C30.0457 46.9701 28.6694 46.4781 27.25 46.1551V51.85C27.25 52.3937 27.466 52.9151 27.8504 53.2995C28.2349 53.684 28.7563 53.9 29.3 53.9Z" fill="#26938A"/>
</svg>
