<svg width="75" height="75" viewBox="0 0 75 75" fill="none" xmlns="http://www.w3.org/2000/svg">
<circle cx="37.5" cy="37.5" r="37.5" fill="#F0F6F5"/>
<path d="M44.9625 52.6875C42.7875 53.7218 40.4084 54.2557 38 54.25C29.04 54.25 21.75 46.96 21.75 38C21.75 34.1562 23.0713 30.5262 25.5 27.615V30.5H28V23H20.5V25.5H24.0525C20.9533 28.9247 19.2411 33.3812 19.25 38C19.25 48.3387 27.6613 56.75 38 56.75C40.7803 56.7558 43.5267 56.139 46.0375 54.945L44.9625 52.6875Z" fill="#26938A"/>
<path d="M44.25 29.25C40.3 29.25 37.0613 32.3213 36.7775 36.2C35.4033 34.9461 33.6103 34.2506 31.75 34.25H26.75V39.25C26.75 43.3862 30.115 46.75 34.25 46.75H36.75V51.75H39.25V41.75H41.75C45.885 41.75 49.25 38.3862 49.25 34.25V29.25H44.25ZM34.25 44.25C31.4925 44.25 29.25 42.0075 29.25 39.25V36.75H31.75C34.5075 36.75 36.75 38.9925 36.75 41.75V42.4825L33.8837 39.6162L32.1163 41.3838L34.9825 44.25H34.25ZM46.75 34.25C46.75 37.0075 44.5075 39.25 41.75 39.25H41.0175L43.8838 36.3837L42.1162 34.6163L39.25 37.4825V36.75C39.25 33.9925 41.4925 31.75 44.25 31.75H46.75V34.25Z" fill="#26938A"/>
<path d="M56.7504 38C56.7504 27.6613 48.3391 19.25 38.0004 19.25C35.2201 19.2443 32.4738 19.861 29.9629 21.055L31.0379 23.3125C33.2129 22.2783 35.592 21.7444 38.0004 21.75C46.9604 21.75 54.2504 29.04 54.2504 38C54.2504 41.8438 52.9291 45.4738 50.5004 48.385V45.5H48.0004V53H55.5004V50.5H51.9479C55.0472 47.0754 56.7594 42.6189 56.7504 38Z" fill="#26938A"/>
</svg>
