<svg width="75" height="75" viewBox="0 0 75 75" fill="none" xmlns="http://www.w3.org/2000/svg">
<circle cx="37.5" cy="37.5" r="37.5" fill="#F0F6F5"/>
<path fill-rule="evenodd" clip-rule="evenodd" d="M45.7829 19.7857C45.7829 19.3121 45.5948 18.8579 45.2599 18.523C44.925 18.1881 44.4708 18 43.9972 18C43.5236 18 43.0694 18.1881 42.7345 18.523C42.3996 18.8579 42.2115 19.3121 42.2115 19.7857V22.0714C42.2115 22.545 42.3996 22.9992 42.7345 23.3341C43.0694 23.669 43.5236 23.8571 43.9972 23.8571C44.4708 23.8571 44.925 23.669 45.2599 23.3341C45.5948 22.9992 45.7829 22.545 45.7829 22.0714V19.7857ZM54.8029 24.6743C54.9767 24.5103 55.1158 24.3131 55.2119 24.0944C55.3081 23.8756 55.3594 23.6398 55.3628 23.4009C55.3662 23.162 55.3216 22.9249 55.2316 22.7035C55.1417 22.4822 55.0083 22.2811 54.8392 22.1122C54.6702 21.9434 54.469 21.8102 54.2475 21.7205C54.026 21.6308 53.7888 21.5865 53.5499 21.5901C53.311 21.5938 53.0753 21.6454 52.8567 21.7418C52.6381 21.8382 52.441 21.9775 52.2772 22.1514L50.6629 23.7657C50.489 23.9295 50.3497 24.1266 50.2533 24.3452C50.1569 24.5638 50.1053 24.7995 50.1016 25.0384C50.098 25.2773 50.1423 25.5145 50.232 25.736C50.3217 25.9575 50.4549 26.1587 50.6237 26.3277C50.7926 26.4968 50.9937 26.6302 51.215 26.7201C51.4364 26.8101 51.6735 26.8547 51.9124 26.8513C52.1513 26.8479 52.3871 26.7966 52.6059 26.7004C52.8246 26.6043 53.0218 26.4652 53.1858 26.2914L54.8029 24.6743ZM33.3172 22.1514C33.652 21.8173 34.1057 21.6297 34.5786 21.6297C35.0516 21.6297 35.5053 21.8173 35.8401 22.1514L37.4572 23.7657C37.6231 23.9316 37.7546 24.1284 37.8444 24.3451C37.9341 24.5618 37.9803 24.794 37.9803 25.0286C37.9803 25.2631 37.9341 25.4953 37.8444 25.712C37.7546 25.9287 37.6231 26.1256 37.4572 26.2914C37.2914 26.4573 37.0945 26.5888 36.8778 26.6786C36.6611 26.7683 36.4289 26.8145 36.1944 26.8145C35.9598 26.8145 35.7276 26.7683 35.5109 26.6786C35.2942 26.5888 35.0973 26.4573 34.9315 26.2914L33.3144 24.6743C32.9802 24.3395 32.7926 23.8858 32.7926 23.4129C32.7926 22.9399 32.9831 22.4862 33.3172 22.1514ZM42.0286 35.72C41.3959 35.3947 40.8621 34.9055 40.4832 34.3033C40.1042 33.7012 39.8939 33.0083 39.8744 32.2971C39.881 31.7754 39.9911 31.2602 40.1984 30.7814C40.4056 30.3025 40.7058 29.8696 41.0816 29.5076C41.4574 29.1457 41.9013 28.8619 42.3875 28.6727C42.8738 28.4836 43.3928 28.3928 43.9144 28.4057C44.9552 28.3996 45.9562 28.8053 46.6991 29.5342C47.442 30.2632 47.8665 31.2564 47.8801 32.2971C47.8601 33.7114 46.9944 35.0886 45.7258 35.72C45.4295 35.8696 45.1804 36.0983 45.0059 36.3806C44.8314 36.663 44.7385 36.9881 44.7372 37.32V38.9829H43.0172V37.3171C43.016 36.9852 42.923 36.6601 42.7485 36.3778C42.5741 36.0954 42.3249 35.8696 42.0286 35.72ZM36.3029 32.3171C36.3067 31.3277 36.5058 30.3487 36.8888 29.4364C37.2719 28.5241 37.8313 27.6964 38.5351 27.0009C39.2389 26.3054 40.073 25.7557 40.9898 25.3834C41.9065 25.0111 42.8878 24.8235 43.8772 24.8314C44.8666 24.8235 45.8479 25.0111 46.7646 25.3834C47.6814 25.7557 48.5156 26.3054 49.2193 27.0009C49.9231 27.6964 50.4825 28.5241 50.8656 29.4364C51.2487 30.3487 51.4478 31.3277 51.4515 32.3171V32.3314C51.4272 33.5044 51.1307 34.6558 50.5853 35.6945C50.0398 36.7333 49.2605 37.6311 48.3086 38.3171V40.1971C48.2894 40.8263 48.0266 41.4234 47.5757 41.8626C47.1248 42.3018 46.521 42.5488 45.8915 42.5514H41.8629C41.234 42.548 40.6309 42.3007 40.1806 41.8616C39.7303 41.4225 39.4679 40.8258 39.4486 40.1971V38.3171C38.4968 37.6311 37.7175 36.7333 37.172 35.6945C36.6266 34.6558 36.3301 33.5044 36.3058 32.3314L36.3029 32.3171ZM52.1429 32.3086C52.1429 31.3229 52.9429 30.5229 53.9286 30.5229H56.2144C56.688 30.5229 57.1422 30.711 57.4771 31.0459C57.8119 31.3808 58.0001 31.835 58.0001 32.3086C58.0001 32.7822 57.8119 33.2364 57.4771 33.5713C57.1422 33.9061 56.688 34.0943 56.2144 34.0943H53.9286C53.455 34.0943 53.0008 33.9061 52.666 33.5713C52.3311 33.2364 52.1429 32.7822 52.1429 32.3086ZM31.7829 30.5229C31.3093 30.5229 30.8551 30.711 30.5202 31.0459C30.1854 31.3808 29.9972 31.835 29.9972 32.3086C29.9972 32.7822 30.1854 33.2364 30.5202 33.5713C30.8551 33.9061 31.3093 34.0943 31.7829 34.0943H34.0686C34.5422 34.0943 34.9964 33.9061 35.3313 33.5713C35.6662 33.2364 35.8544 32.7822 35.8544 32.3086C35.8544 31.835 35.6662 31.3808 35.3313 31.0459C34.9964 30.711 34.5422 30.5229 34.0686 30.5229H31.7829ZM29.9229 44.7429H29.9172C27.8088 44.7547 25.7406 45.3205 23.9198 46.3836C22.099 47.4467 20.5896 48.9697 19.5429 50.8C18.5527 52.5588 18.022 54.5389 18.0001 56.5571C17.9982 56.7459 18.0337 56.9332 18.1047 57.1082C18.1756 57.2832 18.2806 57.4424 18.4134 57.5765C18.5462 57.7107 18.7044 57.8172 18.8786 57.8899C19.0529 57.9626 19.2398 58 19.4286 58H40.4115C40.6003 58 40.7873 57.9626 40.9615 57.8899C41.1358 57.8172 41.2939 57.7107 41.4267 57.5765C41.5596 57.4424 41.6645 57.2832 41.7355 57.1082C41.8064 56.9332 41.842 56.7459 41.8401 56.5571C41.8159 54.5394 41.2833 52.5602 40.2915 50.8029C39.246 48.9723 37.7379 47.4487 35.9181 46.3846C34.0984 45.3206 32.0309 44.7563 29.9229 44.7429ZM33.8601 37.2743C34.8886 37.2743 35.8401 36.9657 36.6344 36.4343C36.5353 37.623 36.1226 38.7641 35.4386 39.7412C34.7545 40.7183 33.8235 41.4965 32.7405 41.9964C31.6575 42.4962 30.4613 42.6998 29.2739 42.5865C28.0865 42.4731 26.9504 42.0468 25.9816 41.351C25.0128 40.6552 24.2458 39.7149 23.759 38.626C23.2722 37.537 23.083 36.3385 23.2107 35.1525C23.3383 33.9666 23.7783 32.8357 24.4857 31.8753C25.193 30.9149 26.1425 30.1594 27.2372 29.6857C26.7789 30.4442 26.5305 31.3108 26.5173 32.1969C26.5041 33.083 26.7266 33.9566 27.162 34.7284C27.5975 35.5002 28.2303 36.1424 28.9955 36.5892C29.7608 37.0361 30.631 37.2715 31.5172 37.2714L33.8601 37.2743Z" fill="#26938A"/>
</svg>
